<?xml version="1.0" standalone="no"?>
<!DOCTYPE svg PUBLIC "-//W3C//DTD SVG 20010904//EN"
 "http://www.w3.org/TR/2001/REC-SVG-20010904/DTD/svg10.dtd">
<svg version="1.0" xmlns="http://www.w3.org/2000/svg"
 width="465.000000pt" height="349.000000pt" viewBox="0 0 465.000000 349.000000"
 preserveAspectRatio="xMidYMid meet">
<metadata>
Created by potrace 1.15, written by Peter Selinger 2001-2017
</metadata>
<g transform="translate(0.000000,349.000000) scale(0.100000,-0.100000)"
fill="#000000" stroke="none">
<path d="M2050 3159 c-52 -16 -111 -42 -106 -46 2 -3 18 3 34 11 34 18 82 24
100 12 7 -4 12 -16 12 -27 0 -36 64 -150 110 -196 46 -46 106 -83 136 -83 11
0 -4 23 -45 68 -108 123 -157 212 -116 212 8 0 15 -5 15 -11 0 -5 4 -7 10 -4
5 3 33 -14 63 -38 54 -44 119 -87 302 -200 102 -63 125 -84 137 -125 l7 -23
-32 21 c-56 37 -115 60 -154 60 -21 1 -108 -1 -193 -2 l-155 -3 -85 -51 c-47
-29 -116 -68 -155 -87 -83 -41 -88 -46 -154 -159 -68 -115 -85 -158 -127 -308
-19 -69 -42 -150 -51 -180 l-16 -55 -7 33 c-4 18 -2 67 6 110 28 162 37 317
24 444 -13 124 -8 226 13 259 20 32 27 21 27 -44 0 -72 17 -177 31 -191 5 -6
9 7 10 35 0 24 4 94 8 156 7 93 13 121 39 175 16 34 42 76 56 92 14 16 26 31
26 33 0 9 -76 -41 -137 -90 -56 -45 -64 -56 -92 -130 -41 -112 -53 -194 -40
-279 14 -92 -4 -499 -33 -718 -13 -98 -22 -225 -22 -312 -1 -80 -3 -145 -5
-142 -2 2 -12 43 -22 91 -12 58 -19 133 -19 218 -1 150 -17 143 -27 -11 -6
-86 -8 -93 -29 -98 -24 -6 -54 -46 -34 -46 5 0 10 -15 10 -33 0 -38 37 -178
51 -191 5 -6 9 -18 9 -27 0 -10 10 -34 21 -54 12 -20 19 -38 16 -42 -19 -18
-103 192 -113 283 l-7 55 -36 -34 c-20 -19 -67 -54 -106 -79 -81 -52 -128 -94
-121 -107 4 -5 -17 -26 -45 -46 -82 -59 -136 -113 -208 -210 -108 -144 -173
-277 -185 -377 -3 -24 -11 -59 -17 -78 -6 -19 -13 -54 -16 -76 -2 -23 -8 -55
-13 -70 -7 -21 -8 -14 -4 29 4 31 4 57 1 57 -3 0 -20 -23 -37 -52 -23 -37 -33
-67 -35 -103 -2 -28 -11 -69 -20 -91 -9 -21 -18 -48 -20 -59 -1 -11 -3 -24 -4
-28 0 -5 -6 -5 -13 -1 -6 4 -8 3 -5 -3 8 -12 -19 -98 -40 -128 -27 -40 -17
-55 36 -55 48 0 49 1 59 37 l10 38 1 -38 1 -38 47 3 48 3 13 65 c7 36 20 86
27 111 8 26 15 55 15 65 0 9 3 14 7 10 5 -4 8 -58 8 -119 0 -62 4 -118 8 -124
9 -14 123 -18 131 -5 2 4 -9 18 -25 31 -17 13 -37 37 -45 52 -42 82 -9 400 56
534 16 33 34 83 40 110 22 92 69 233 92 274 23 40 83 81 120 81 18 0 66 -23
104 -50 39 -28 62 -89 58 -155 -6 -94 -15 -179 -19 -183 -2 -2 -7 23 -11 57
-4 34 -10 63 -14 66 -19 12 -51 -145 -56 -275 -3 -58 -9 -132 -14 -164 -9 -63
-5 -105 15 -146 17 -33 57 -67 75 -63 8 2 -1 -5 -20 -14 -20 -10 -59 -33 -88
-51 -30 -20 -69 -36 -94 -39 l-43 -4 33 17 c53 27 72 59 72 119 0 29 4 76 10
104 5 29 12 84 15 124 4 40 11 97 17 127 12 59 11 251 -1 297 -5 18 -14 28
-27 28 -11 0 -18 -6 -16 -14 2 -9 -3 -11 -13 -7 -9 3 -19 6 -21 6 -2 0 -4 11
-4 25 0 27 -19 75 -30 75 -10 0 -27 -43 -44 -110 -15 -59 -29 -180 -47 -405
-6 -77 -14 -144 -18 -148 -5 -5 -14 24 -22 64 -16 82 -33 99 -43 42 -17 -104
4 -237 46 -296 l22 -30 -22 5 c-29 8 -28 -4 4 -41 33 -39 77 -51 191 -51 l93
0 -2 41 c-2 46 6 54 84 95 26 13 65 24 86 24 21 0 66 9 100 21 48 16 66 18 76
10 9 -8 36 -10 79 -5 82 8 110 1 125 -31 11 -24 15 -25 66 -19 49 6 54 5 61
-15 3 -11 3 -25 0 -31 -8 -13 75 -13 108 -1 24 9 24 12 14 56 -15 64 3 159 43
238 18 34 37 67 42 72 13 12 6 -52 -16 -150 -21 -95 -21 -199 0 -224 14 -16
22 -17 45 -9 25 9 27 12 17 31 -7 15 -9 84 -4 236 8 238 -6 402 -44 529 -11
37 -21 76 -23 87 -2 11 -10 34 -19 50 -25 48 -31 76 -17 73 8 -2 31 -37 53
-78 48 -91 119 -199 184 -277 108 -129 218 -308 261 -422 22 -60 41 -115 41
-121 0 -6 8 -9 18 -6 15 5 119 26 128 26 2 0 6 23 10 51 4 32 13 53 22 57 9 3
18 0 20 -6 6 -18 22 -4 22 19 0 22 37 41 60 29 8 -4 24 -6 35 -4 26 4 44 -11
83 -68 53 -77 56 -74 50 43 -8 144 6 186 16 49 7 -98 2 -182 -11 -204 -4 -5 0
-6 7 -1 10 6 12 4 7 -9 -4 -10 -3 -15 3 -11 6 3 10 0 10 -8 0 -8 7 -20 15 -27
12 -10 15 -10 15 3 0 8 7 20 15 27 22 18 35 2 46 -56 5 -26 11 -49 13 -52 3
-2 24 16 48 40 74 73 137 128 146 128 6 0 13 -16 16 -35 4 -19 10 -35 13 -35
3 0 27 13 52 29 25 16 56 32 68 35 11 4 29 18 38 33 13 18 19 22 25 13 5 -9
13 -2 24 22 16 33 16 39 -3 109 -36 131 -46 151 -79 165 -29 12 -33 11 -47 -9
-8 -12 -15 -35 -15 -52 0 -23 3 -27 10 -15 7 11 10 11 10 2 0 -7 4 -10 10 -7
5 3 10 17 10 30 0 13 4 27 10 30 6 3 7 -1 4 -9 -3 -9 -1 -16 5 -16 6 0 11 8
11 18 0 13 2 14 9 3 10 -16 2 -53 -10 -45 -5 3 -9 -2 -9 -11 0 -9 5 -13 11 -9
8 4 8 0 0 -15 -13 -23 -2 -28 18 -8 7 7 5 -4 -5 -26 -15 -32 -22 -37 -51 -37
-34 0 -53 -21 -53 -58 0 -27 -34 -55 -58 -48 -22 7 -70 56 -55 56 5 0 18 -9
28 -20 19 -21 50 -26 60 -10 3 5 1 10 -5 10 -6 0 -10 12 -8 28 2 18 8 26 18
24 12 -3 12 -1 3 9 -10 10 -15 9 -28 -1 -18 -15 -19 -2 -1 22 7 10 17 14 21
10 4 -4 3 3 -4 15 -14 28 -14 36 2 28 6 -4 -24 27 -68 69 l-80 76 -14 -61 c-9
-37 -18 -56 -24 -50 -6 6 -3 32 7 72 l15 62 -34 56 c-47 76 -101 215 -109 282
-6 49 -25 103 -26 72 0 -12 -59 -88 -103 -133 -14 -14 -51 -33 -84 -42 -52
-15 -66 -16 -128 -3 -78 15 -353 27 -360 15 -2 -4 4 -15 15 -25 16 -15 35 -18
91 -17 39 1 78 6 87 11 27 13 95 8 100 -8 3 -9 0 -12 -10 -9 -7 3 -27 -1 -43
-8 -28 -13 -25 -14 45 -9 41 3 106 8 144 11 55 6 68 4 64 -6 -2 -8 -13 -18
-23 -24 -11 -6 -26 -17 -34 -25 -13 -12 -12 -14 3 -23 10 -6 16 -19 14 -31 -1
-12 1 -28 6 -35 5 -9 0 -22 -14 -37 -31 -33 -178 -108 -196 -101 -9 3 -12 1
-9 -4 3 -6 -5 -10 -19 -10 -16 0 -23 5 -22 15 3 23 14 30 106 66 47 18 92 40
100 48 13 13 13 14 0 4 -16 -12 -125 -42 -177 -49 -34 -4 -113 22 -113 37 0
12 30 25 75 33 64 10 175 48 175 58 0 6 -7 8 -15 4 -20 -7 -129 -25 -183 -29
-124 -10 -260 35 -306 101 -31 45 -33 68 -7 82 32 16 49 12 63 -17 16 -34 43
-37 42 -6 0 20 6 22 85 28 47 3 121 11 164 16 63 8 95 7 167 -7 103 -20 136
-12 173 40 12 17 47 59 78 93 55 61 57 65 68 145 7 46 17 101 24 122 9 31 8
41 -1 44 -7 2 -12 9 -12 16 0 20 -55 67 -71 61 -10 -4 -27 9 -46 33 l-31 38 6
160 c4 123 1 182 -12 258 -14 83 -15 120 -7 235 6 75 12 204 13 286 l3 150
-78 168 c-155 337 -204 393 -372 416 -113 16 -356 21 -395 10z m539 -417 c36
-29 81 -87 81 -104 0 -5 -15 0 -34 11 -38 24 -67 25 -151 6 l-60 -14 55 3 c30
1 68 -1 83 -7 36 -12 64 -68 69 -137 l3 -54 -50 -18 c-27 -10 -62 -32 -77 -48
-24 -25 -28 -39 -28 -85 0 -51 2 -56 28 -66 27 -11 99 -8 139 6 19 6 23 3 28
-28 9 -44 -20 -223 -48 -297 -24 -66 -56 -119 -95 -157 -108 -105 -131 -122
-183 -137 -33 -10 -71 -14 -99 -11 -38 4 -41 4 -20 -5 13 -6 59 -14 102 -17
42 -3 75 -10 72 -14 -10 -17 24 -9 50 12 41 33 51 17 16 -26 -35 -44 -54 -75
-45 -75 3 0 23 16 45 36 22 20 43 34 47 31 6 -7 -33 -68 -67 -105 -19 -20 -26
-42 -15 -42 4 0 18 6 33 14 19 10 35 33 51 73 37 94 144 313 153 313 12 0 14
-117 2 -167 -7 -36 14 -27 35 15 21 41 51 172 51 221 0 38 10 62 21 55 21 -13
39 -81 39 -148 0 -173 -80 -321 -235 -433 -52 -38 -68 -58 -115 -146 -49 -89
-61 -105 -100 -125 -29 -14 -62 -22 -96 -22 -62 0 -155 17 -168 30 -13 13 27
47 67 56 31 8 37 9 67 13 8 2 -16 11 -55 20 -128 33 -185 51 -185 61 0 6 36
10 83 11 56 1 73 3 52 8 -84 21 -168 88 -184 148 -15 51 -14 55 7 49 16 -5 18
-2 14 24 -3 22 0 30 11 30 14 0 14 3 0 31 -21 42 -25 112 -6 105 11 -4 10 0
-2 24 -18 34 -19 60 -4 60 6 0 31 -12 57 -27 l47 -26 -38 40 c-48 51 -62 95
-92 313 -38 268 -31 464 18 491 8 5 25 17 38 29 23 20 22 20 -23 -2 -26 -12
-51 -19 -54 -15 -4 4 0 24 7 44 16 42 111 120 211 173 57 31 60 31 161 25 56
-3 118 -1 137 4 55 16 108 6 149 -27z m-795 -479 c27 -152 37 -225 45 -336 5
-70 12 -131 15 -136 8 -13 85 -315 82 -319 -4 -3 -38 107 -50 162 -4 15 -9 26
-12 23 -3 -2 5 -69 16 -148 22 -154 21 -235 -7 -332 -17 -61 -24 -113 -13
-101 4 5 19 27 34 49 14 22 26 37 26 33 0 -7 -58 -117 -71 -133 -19 -25 -74
-144 -90 -195 -9 -31 -23 -55 -30 -55 -18 0 -43 94 -64 237 -20 144 -56 293
-100 423 -43 126 -47 206 -11 274 27 51 33 45 41 -35 16 -155 30 -131 39 65
11 241 36 431 57 431 15 0 27 -34 20 -54 -12 -36 0 -814 15 -973 5 -58 25
-105 38 -92 12 12 37 414 30 489 -3 41 -17 160 -30 264 -13 104 -24 204 -24
223 0 18 -3 33 -7 33 -14 0 -7 181 6 190 7 4 12 11 12 16 -2 18 11 44 18 39 5
-2 11 -21 15 -42z m892 -1058 c-21 -30 -69 -82 -107 -116 -69 -61 -82 -82 -37
-58 22 11 22 11 6 -7 -11 -12 -15 -28 -11 -42 3 -13 1 -22 -6 -22 -8 0 -9 -5
-2 -19 14 -24 -4 -29 -131 -38 -85 -5 -103 -3 -151 16 -59 24 -103 63 -92 80
3 7 43 11 98 11 88 0 96 2 187 45 52 25 100 45 106 45 11 0 157 144 163 161 1
5 6 8 9 5 3 -3 -12 -31 -32 -61z m155 15 c-7 -30 -6 -61 4 -107 13 -63 11 -93
-5 -93 -4 0 -11 11 -14 25 -9 34 -22 31 -35 -7 -9 -24 -8 -33 1 -39 7 -4 10
-10 8 -12 -20 -16 -121 -67 -133 -67 -36 0 -26 25 31 78 56 52 64 66 98 157
20 55 38 104 41 108 11 18 13 -3 4 -43z m-1505 -44 c33 -24 101 -117 148 -205
24 -44 40 -79 35 -76 -23 15 -29 -89 -17 -293 4 -61 4 -112 -1 -112 -13 0 -71
72 -72 89 0 12 -3 11 -9 -4 -8 -18 -9 -17 -9 8 -1 15 -12 50 -26 78 -14 28
-40 87 -56 132 -17 45 -49 120 -72 167 -42 88 -48 108 -37 125 4 6 10 23 14
40 9 36 25 57 37 49 5 -3 9 0 9 5 0 16 32 13 56 -3z m254 -391 c23 -36 26 -98
22 -373 -2 -116 -17 -133 -40 -46 -20 74 -26 454 -7 454 2 0 13 -16 25 -35z"/>
<path d="M2230 2370 c0 -5 9 -10 19 -10 27 0 33 -13 18 -44 -11 -24 -17 -26
-75 -26 -62 0 -62 0 -56 26 l7 26 -27 -17 c-31 -21 -33 -31 -6 -40 11 -4 18
-10 15 -15 -3 -5 8 -16 24 -25 73 -37 207 5 161 51 -7 7 -4 10 12 10 31 -1 34
27 7 53 -24 22 -99 30 -99 11z"/>
<path d="M1953 2902 c-40 -59 -75 -116 -79 -127 -4 -11 -11 -22 -14 -25 -26
-19 -98 -180 -81 -180 5 0 25 26 46 58 21 31 59 84 85 117 66 84 107 162 115
218 4 26 6 47 4 47 -2 -1 -36 -49 -76 -108z"/>
<path d="M3720 1601 c0 -16 60 -71 77 -71 14 0 13 3 -3 21 -19 22 -19 22 4 8
12 -8 22 -19 22 -25 0 -7 7 -15 16 -18 14 -5 15 -4 4 9 -11 13 -10 14 6 9 10
-4 27 -14 36 -21 9 -8 21 -12 26 -9 16 10 75 -58 103 -119 20 -45 35 -63 58
-73 37 -16 61 -58 61 -105 0 -42 -19 -99 -31 -92 -4 3 -4 17 1 31 12 32 13 74
1 74 -5 0 -12 11 -15 24 -3 13 -13 26 -21 30 -12 4 -15 -3 -16 -32 -1 -36 -2
-35 -11 12 -12 63 -57 161 -97 210 -42 53 -39 39 9 -35 51 -79 66 -131 51
-180 -6 -20 -12 -47 -12 -60 -1 -13 -5 6 -9 42 -7 61 -38 145 -40 109 0 -9 -6
-6 -14 9 l-13 24 -5 -26 c-3 -14 -1 -30 5 -36 5 -5 6 -14 3 -20 -9 -14 -33
-14 -42 1 -4 7 -3 8 4 4 7 -4 12 -4 12 1 0 13 -19 38 -29 38 -5 0 -18 11 -30
25 -18 21 -20 22 -15 5 3 -11 -4 -4 -16 15 -30 48 -141 160 -152 154 -5 -3
-19 2 -30 13 -21 18 -21 18 -7 -4 8 -13 18 -23 23 -23 32 0 166 -155 166 -191
0 -20 47 -68 77 -80 14 -5 23 -12 20 -15 -12 -13 -61 8 -89 38 -15 16 -28 25
-28 20 0 -6 15 -26 34 -44 37 -36 87 -48 112 -27 11 9 14 8 14 -3 0 -38 -66
-52 -107 -23 -12 9 -37 40 -54 69 -35 58 -67 87 -65 58 0 -9 11 -25 22 -34 12
-10 27 -30 33 -46 14 -32 59 -70 100 -82 23 -7 24 -8 4 -9 -34 -1 -91 31 -97
55 -3 12 -13 25 -22 28 -13 5 -14 4 -5 -7 9 -12 3 -13 -40 -6 -28 5 -63 15
-78 24 l-26 16 23 -20 c13 -12 41 -25 62 -31 21 -6 47 -18 57 -28 10 -9 14
-14 9 -9 -6 4 -19 7 -31 7 -19 -1 -18 -2 5 -21 14 -11 34 -27 44 -36 18 -14
20 -14 33 3 12 17 13 17 13 -2 0 -36 -77 -57 -122 -33 -27 15 -35 3 -13 -21
20 -22 40 -27 29 -7 -6 10 -4 10 7 0 7 -7 31 -14 54 -14 36 -1 34 -2 -18 -10
-34 -5 -67 -5 -82 1 -28 11 -53 59 -35 70 6 4 2 14 -11 26 -27 24 -51 78 -43
99 4 8 -1 30 -9 48 -8 17 -17 43 -21 57 -3 14 -3 19 0 13 8 -19 21 -16 27 7 3
11 0 20 -6 20 -7 0 -21 8 -32 17 -16 13 -17 15 -2 10 11 -4 17 -1 17 8 0 18
-27 45 -48 46 -10 1 -7 4 8 8 l25 8 -29 14 c-25 12 -30 11 -41 -4 -11 -16 -13
-16 -19 -1 -9 22 -7 31 3 16 6 -10 10 -10 19 1 10 11 7 14 -15 13 -23 -1 -28
-6 -30 -32 -3 -34 24 -74 49 -74 8 0 23 -9 32 -19 21 -23 56 -134 56 -178 0
-17 5 -35 10 -38 6 -3 10 -11 10 -16 0 -6 -4 -8 -10 -4 -10 6 13 -79 27 -98 8
-10 16 -34 39 -115 2 -7 20 -20 39 -28 38 -16 43 -25 20 -44 -8 -7 -15 -17
-15 -23 0 -5 8 -3 18 6 26 24 35 21 55 -13 21 -36 17 -46 -23 -55 -16 -4 -32
-11 -35 -16 -4 -5 -19 -9 -36 -9 -27 0 -29 -3 -29 -35 l0 -35 42 6 c33 6 44 4
55 -11 7 -11 13 -15 14 -9 2 28 18 -38 18 -79 1 -26 5 -55 10 -65 18 -36 50
-129 56 -166 10 -60 39 -116 84 -163 13 -14 13 -19 -2 -46 -21 -35 -17 -43 12
-27 28 15 27 -3 -1 -24 -23 -16 -23 -16 5 -4 22 9 27 18 28 47 1 20 3 28 6 18
2 -9 8 -15 13 -12 7 4 25 -50 21 -68 -1 -5 2 -6 7 -3 5 3 7 27 6 53 -2 41 -8
52 -41 80 l-38 33 41 -16 c25 -9 46 -26 53 -41 13 -29 14 -53 2 -53 -12 0 -5
-38 10 -56 6 -8 16 -14 21 -14 6 0 5 7 -2 15 -10 12 -10 28 1 80 11 55 15 63
23 46 9 -16 13 -17 24 -5 6 7 12 21 12 31 0 15 2 16 10 3 8 -12 10 -11 10 5 0
27 -18 45 -38 38 -10 -4 -13 -2 -8 6 9 15 46 5 64 -17 6 -9 9 -25 6 -35 -4
-13 -2 -17 5 -13 21 13 11 -6 -22 -41 -25 -25 -33 -42 -29 -59 5 -27 17 -31
26 -9 5 13 9 12 26 -5 11 -11 25 -20 30 -20 6 0 10 -9 10 -20 0 -11 5 -20 10
-20 14 0 12 21 -6 71 -15 45 -29 147 -17 136 6 -7 33 37 33 54 0 5 -7 6 -15 3
-11 -5 -14 -2 -9 12 4 11 11 24 16 31 6 7 6 18 2 25 -5 10 -4 11 6 1 17 -16
19 -115 2 -121 -7 -2 -10 -8 -6 -13 3 -5 1 -9 -4 -9 -14 0 -9 -75 6 -93 8 -9
11 -21 7 -27 -3 -5 -2 -10 4 -10 5 0 12 -10 14 -23 3 -17 5 -15 6 8 0 17 8 41
17 54 9 13 22 46 29 75 12 49 13 50 14 15 1 -20 -6 -54 -15 -75 -17 -39 -20
-98 -9 -134 5 -15 15 -20 43 -20 25 0 33 3 23 9 -7 5 -11 14 -7 19 4 7 -1 9
-13 7 -13 -2 -18 1 -15 10 3 7 1 30 -5 50 -8 30 -7 44 5 67 9 17 18 27 22 24
3 -4 0 -12 -6 -18 -19 -19 -14 -59 15 -115 26 -50 29 -51 70 -51 24 0 41 4 37
9 -3 5 -7 30 -10 54 -2 25 -11 60 -20 78 -10 17 -25 63 -35 101 -17 65 -52
121 -70 110 -5 -3 -9 4 -9 16 0 32 -17 58 -50 75 -36 19 -40 53 -10 93 17 23
20 37 14 87 -3 33 -7 80 -8 105 -2 48 20 120 41 133 24 15 61 92 73 151 18 88
14 153 -15 247 -25 79 -31 88 -100 154 -40 39 -88 78 -107 87 -73 37 -175 76
-213 82 -79 12 -225 16 -225 7z m-90 -523 c25 -53 37 -66 72 -83 24 -11 60
-35 80 -54 21 -18 38 -27 38 -20 0 7 12 1 28 -14 39 -37 53 -34 17 3 -16 17
-34 29 -41 26 -6 -2 -17 6 -24 20 -8 15 -26 26 -46 30 -48 9 -63 31 -21 31 17
1 51 7 75 13 40 12 46 11 73 -9 16 -12 29 -18 29 -13 0 11 -30 37 -52 45 -21
7 -24 27 -5 27 8 0 7 4 -3 11 -11 8 -8 9 14 4 28 -6 76 -47 76 -63 -1 -24 -14
-52 -25 -52 -8 0 0 -13 16 -29 16 -16 29 -38 29 -48 0 -10 7 -29 16 -41 15
-23 64 -153 64 -172 0 -6 -5 -8 -12 -4 -8 5 -9 2 -5 -10 4 -10 7 -23 7 -29 0
-7 5 -6 11 3 9 12 10 12 5 -4 -4 -12 1 -28 16 -44 23 -25 23 -25 1 -13 -35 18
-35 14 -7 -36 l27 -48 -32 30 c-43 40 -52 58 -58 119 -3 28 -9 59 -14 68 -13
24 -11 32 4 20 7 -6 19 -7 26 -3 18 12 -40 76 -93 103 -23 11 -49 27 -59 36
-16 14 -17 14 -12 0 3 -8 31 -36 61 -63 30 -26 53 -49 50 -52 -3 -3 2 -19 11
-36 l15 -31 -43 34 -44 34 31 -35 c36 -39 54 -70 54 -95 0 -14 -2 -15 -17 -3
-15 13 -15 10 -9 -26 4 -22 15 -49 24 -60 16 -19 16 -19 -1 -6 -15 12 -17 11
-14 -10 2 -12 10 -25 17 -27 7 -3 10 0 6 7 -5 7 -1 8 10 4 12 -4 14 -8 5 -11
-8 -3 -7 -8 6 -18 13 -10 7 -9 -23 2 -70 27 -93 52 -102 114 l-9 55 -7 -37
c-13 -59 17 -108 83 -134 34 -14 47 -23 38 -27 -27 -10 -82 12 -116 47 -27 28
-33 41 -33 77 0 24 7 57 16 74 13 26 14 31 1 45 -17 19 -21 65 -5 55 6 -4 8
-10 5 -14 -2 -5 2 -16 9 -26 12 -17 14 -16 20 9 7 30 0 66 -14 66 -4 0 -16 12
-25 27 -16 24 -16 26 0 20 10 -4 15 -3 13 4 -2 6 -7 10 -12 9 -14 -3 -64 51
-70 75 -4 15 -25 33 -58 50 -48 25 -51 26 -34 6 17 -19 18 -21 2 -15 -16 6
-47 59 -79 137 -25 60 -10 43 23 -25z m248 -614 c9 -3 30 -13 46 -21 16 -9 26
-11 22 -4 -4 6 -2 11 3 11 6 0 11 -5 11 -11 0 -6 7 -8 16 -5 12 5 15 2 11 -13
-3 -14 4 -21 33 -31 21 -7 55 -28 76 -48 22 -20 30 -31 19 -27 -17 7 -63 17
-141 31 -55 10 -136 96 -150 159 l-6 30 21 -33 c12 -18 29 -35 39 -38z"/>
<path d="M2100 818 c0 -2 6 -37 14 -78 8 -41 17 -156 21 -255 7 -189 13 -226
47 -312 22 -58 28 -60 108 -42 106 24 118 29 115 47 -34 172 -99 346 -169 452
-13 19 -45 70 -71 113 -27 42 -52 77 -57 77 -4 0 -8 -1 -8 -2z"/>
<path d="M1422 104 c3 -17 -3 -19 -65 -19 -61 0 -70 -3 -87 -25 -27 -35 -20
-45 34 -48 45 -3 47 -2 44 20 -3 21 0 23 32 20 57 -6 72 -11 90 -27 9 -8 26
-15 37 -15 l21 0 -20 53 c-24 63 -24 63 -43 47 -12 -10 -18 -10 -31 1 -14 11
-15 10 -12 -7z"/>
</g>
</svg>
